HIERARCHY
ROOT Hips
{
	OFFSET	0	0	0
	CHANNELS 6  Xposition Yposition Zposition Xrotation Yrotation Zrotation
	JOINT Spine
	{
		OFFSET	0	3.8508	0.774427
		CHANNELS 3  Xrotation Yrotation Zrotation
		JOINT Spine1
		{
			OFFSET	0	6.60426	-1.17933
			CHANNELS 3  Xrotation Yrotation Zrotation
			JOINT Spine2
			{
				OFFSET	0	5.00626	0.536596
				CHANNELS 3  Xrotation Yrotation Zrotation
				JOINT Spine3
				{
					OFFSET	0	5.991	1.78079
					CHANNELS 3  Xrotation Yrotation Zrotation
					JOINT Spine4
					{
						OFFSET	0	8.86857	-0.908085
						CHANNELS 3  Xrotation Yrotation Zrotation
						JOINT Neck
						{
							OFFSET	0	4.2338	-2.96602
							CHANNELS 3  Xrotation Yrotation Zrotation
							JOINT Head
							{
								OFFSET	0	5.08292	-1.52134
								CHANNELS 3  Xrotation Yrotation Zrotation
								End Site
								{
									OFFSET	0	10.6022	-0.513009
								}
							}
						}
					}
					JOINT LeftShoulder
					{
						OFFSET	-2.54736	10.7791	-5.08292
						CHANNELS 3  Xrotation Yrotation Zrotation
						JOINT LeftArm
						{
							OFFSET	-5.58049	-1.52134	1.9518
							CHANNELS 3  Xrotation Yrotation Zrotation
							JOINT LeftForeArm
							{
								OFFSET	-19.0272	-0.868433	1.35814
								CHANNELS 3  Xrotation Yrotation Zrotation
								JOINT LeftHand
								{
									OFFSET	-15.041	-1.03942	1.07361
									CHANNELS 3  Xrotation Yrotation Zrotation
									End Site
									{
										OFFSET	-5.48921	-0.379337	0.391788
									}
								}
							}
						}
					}
					JOINT RightShoulder
					{
						OFFSET	2.54736	10.7791	-5.08292
						CHANNELS 3  Xrotation Yrotation Zrotation
						JOINT RightArm
						{
							OFFSET	5.58049	-1.52134	1.9518
							CHANNELS 3  Xrotation Yrotation Zrotation
							JOINT RightForeArm
							{
								OFFSET	19.0272	-0.868433	1.35814
								CHANNELS 3  Xrotation Yrotation Zrotation
								JOINT RightHand
								{
									OFFSET	15.041	-1.03942	1.07361
									CHANNELS 3  Xrotation Yrotation Zrotation
									End Site
									{
										OFFSET	5.48921	-0.379337	0.391788
									}
								}
							}
						}
					}
				}
			}
		}
	}
	JOINT LeftUpLeg
	{
		OFFSET	-5.30616	-1.9254	-0.387214
		CHANNELS 3  Xrotation Yrotation Zrotation
		JOINT LeftLeg
		{
			OFFSET	-1.24242	-24.3447	-0.380561
			CHANNELS 3  Xrotation Yrotation Zrotation
			JOINT LeftFoot
			{
				OFFSET	-1.21431	-22.3837	1.925
				CHANNELS 3  Xrotation Yrotation Zrotation
				JOINT LeftToeBase
				{
					OFFSET	0	-2.79723	-7.42944
					CHANNELS 3  Xrotation Yrotation Zrotation
					End Site
					{
						OFFSET	0	-1.11889	-4.47557
					}
				}
			}
		}
	}
	JOINT RightUpLeg
	{
		OFFSET	5.30616	-1.9254	-0.387214
		CHANNELS 3  Xrotation Yrotation Zrotation
		JOINT RightLeg
		{
			OFFSET	1.24242	-24.3447	-0.380561
			CHANNELS 3  Xrotation Yrotation Zrotation
			JOINT RightFoot
			{
				OFFSET	1.21431	-22.3837	1.925
				CHANNELS 3  Xrotation Yrotation Zrotation
				JOINT RightToeBase
				{
					OFFSET	0	-2.79723	-7.42944
					CHANNELS 3  Xrotation Yrotation Zrotation
					End Site
					{
						OFFSET	0	-1.11889	-4.47557
					}
				}
			}
		}
	}
}
MOTION
Frames: 6
Frame Time: 0.033334
 -42.4822 49.5509 11.7141 2.68163 -152.022 -14.734 0.000498056 -0.00744366 3.82796 2.22057 -0.0148282 6.37993 2.08239 -0.0444846 6.37993 1.05527 -0.00744366 3.82796 1.72971 0.0385214 1.2754 2.80442 8.03052 -15.4803 0.98676 30.7013 -2.57681 0.457177 0.88862 0.874353 22.7802 -9.52057 -1.29413 73.2028 -51.4258 69.0668 -0 -7.35322 -23.7603 176.027 175.07 -171.99 177.984 136.369 142.965 137.014 106.953 -138.558 -0 -7.0889 28.8235 55.5603 7.58726 34.8064 169.967 -172.445 169.583 40.12 -0.035637 13.2933 179.994 180 -180 37.0801 -12.7947 23.3294 11.499 19.556 -9.19043 39.4176 0.0166537 -4.23577 179.588 180 -180
 -41.0856 49.329 12.3365 3.10652 -152.604 -13.3804 0.000301728 -0.00486718 3.54737 2.51974 -0.00970117 5.91228 2.33377 -0.0291035 5.91228 1.11551 -0.00486718 3.54737 2.15499 0.04447 1.18162 3.78141 8.01919 -15.1868 1.30964 30.5998 -2.61668 0.91528 -0.0874387 1.7666 22.2016 -9.86421 -1.4965 73.5625 -50.3168 69.0858 -0 -6.36488 -23.9553 176.585 176.946 -173.221 2.25725 42.4417 -39.8342 130.976 106.244 -132.274 -0 -7.22548 28.5812 56.5511 8.93469 33.2414 169.248 -172.917 169.377 39.6042 -0.0177738 13.6328 0.0428076 0 0 36.3183 -13.3755 24.2777 11.4944 20.0631 -8.36444 40.0269 0.0874871 -4.80518 179.605 180 -180
 -39.6913 49.1814 12.5824 3.69321 -153.188 -11.9796 1.83224e-05 -0.000316238 3.31592 2.77232 -0.000630592 5.52654 2.58123 -0.00189178 5.52654 1.27456 -0.000316238 3.31592 2.26213 0.0436335 1.10445 3.90545 8.17835 -14.775 1.32954 30.4047 -2.50856 1.28422 -1.02388 2.49988 21.9322 -10.3602 -1.48426 74.8223 -49.1081 70.2389 -0 -5.08377 -24.5107 176.761 178.957 -173.677 4.77777 40.6822 -41.4674 126.426 106.016 -127.759 -0 -7.32105 28.3433 58.4153 10.1231 33.7436 168.867 -172.834 169.454 39.7375 -0.0152359 14.1322 0.0969983 0 0 36.2285 -13.767 25.2723 11.555 20.4366 -7.60078 40.2127 0.0633815 -5.26998 179.617 180 -180
 -38.1823 48.8197 12.449 4.57829 -152.658 -10.8268 180 180 -176.902 2.97097 4.43069e-05 5.16309 2.77729 0.000132921 5.16309 1.39961 2.22112e-05 3.09785 2.34571 0.0422686 1.03175 3.89253 7.87158 -14.9726 1.34307 30.1426 -2.59421 1.29755 -1.87938 2.54428 21.7113 -10.3934 -0.93086 75.0259 -47.8569 70.0931 -0 -3.95929 -24.8774 176.453 -178.859 -173.207 6.26693 38.5416 -41.7022 124.189 106.361 -125.482 -0 -7.47488 28.2278 60.1056 10.7608 33.6738 168.507 -172.535 169.417 39.8069 -0.00901619 14.3251 0.154353 0 0 37.1516 -13.7345 27.056 11.4445 20.6873 -6.87224 40.1863 0.0301072 -5.64398 179.634 180 -180
 -36.4002 48.5596 12.45 5.15383 -152.993 -9.63618 179.999 179.989 -177.107 3.16508 0.0222147 4.82102 2.94824 0.066644 4.82103 1.47145 0.0111326 2.89262 2.54696 0.0428516 0.963253 4.1347 7.20406 -15.5819 1.47331 29.8593 -2.85538 1.28539 -3.15688 2.54662 22.4438 -10.64 0.133018 75.1124 -46.8846 69.8198 -0 -3.35433 -25.2028 175.986 -177.542 -172.404 6.91673 38.3844 -41.9331 116.96 105.716 -118.01 -0 -7.26108 28.0225 61.6473 10.7448 33.9764 168.292 -171.63 169.384 40.0391 -0.00921407 14.3265 0.224004 0 0 37.6787 -13.6688 28.3284 11.2966 21.1745 -7.06135 40.2309 -0.0518743 -6.13253 179.653 180 -180
 -34.2681 48.5288 12.1113 5.81856 -152.898 -8.05228 180 179.993 -177.432 3.34047 0.0138227 4.28045 3.13937 0.041468 4.28045 1.63025 0.00692371 2.56827 2.50681 0.0374466 0.85527 3.59967 6.21311 -16.5745 1.36806 29.294 -3.16583 1.15003 -4.57889 2.303 23.4368 -11.4203 0.779047 76.2845 -46.5382 71.561 -0 -3.59425 -25.5904 175.58 -175.758 -171.781 7.22389 38.4794 -43.2607 109.724 105.329 -110.385 -0 -7.07332 27.8493 62.6628 10.4186 34.344 167.907 -170.937 169.267 40.6711 -0.0194158 14.3338 0.298523 0 0 37.5523 -13.8135 29.5557 10.2652 20.6694 -7.54416 40.1723 -0.0566386 -6.68981 179.676 180 -180
